PathFileType	3	(X/Y/Z)	D:\VICON_DB\Goncalves\Pilot01\09-03-2026\bw_sq_120_02.trc
DataRate	CameraRate	NumFrames	NumMarkers	Units	OrigDataRate	OrigDataStartFrame	OrigNumFrames
200.0	200.0	12	34	mm	200.0	296	787	
Frame#	Time	LASI			RASI			LPSI			RPSI			LTHI			LTHAP			LTHAD			LKNE			LKNM			LTIB			LTIAP			LTIAD			LANK			LMED			LHEE			LTOE			LFMH			LSMH			LVMH			RTHI			RTHAP			RTHAD			RKNE			RKNM			RTIB			RTIAP			RTIAD			RANK			RMED			RHEE			RTOE			RFMH			RSMH			RVMH			
		X1	Y1	Z1	X2	Y2	Z2	X3	Y3	Z3	X4	Y4	Z4	X5	Y5	Z5	X6	Y6	Z6	X7	Y7	Z7	X8	Y8	Z8	X9	Y9	Z9	X10	Y10	Z10	X11	Y11	Z11	X12	Y12	Z12	X13	Y13	Z13	X14	Y14	Z14	X15	Y15	Z15	X16	Y16	Z16	X17	Y17	Z17	X18	Y18	Z18	X19	Y19	Z19	X20	Y20	Z20	X21	Y21	Z21	X22	Y22	Z22	X23	Y23	Z23	X24	Y24	Z24	X25	Y25	Z25	X26	Y26	Z26	X27	Y27	Z27	X28	Y28	Z28	X29	Y29	Z29	X30	Y30	Z30	X31	Y31	Z31	X32	Y32	Z32	X33	Y33	Z33	X34	Y34	Z34	
296	1.475	256.15591	588.11029	-1091.6543	260.48978	603.65613	-1358.7894				429.45096	708.49054	-1251.4819	247.08743	579.98462	-1017.8752	296.50906	601.11505	-1029.9899	233.55559	527.97827	-956.2652	126.366	421.19818	-896.44977				186.66777	247.68965	-892.15643	83.050323	295.77179	-919.60522	154.29727	207.09778	-914.55658	282.08624	68.282562	-946.49817				315.48914	70.139397	-1003.3763	203.67661	70.667252	-951.38257	146.77705	45.568275	-972.55096				170.43663	25.632944	-895.703	205.91901	522.50464	-1461.8955	266.27679	606.61584	-1404.3796	196.20802	576.14026	-1401.5475	108.4136	425.03778	-1483.6432				134.93277	252.00366	-1499.2668	62.614887	281.33984	-1457.2266	110.90691	211.99007	-1450.0461	272.50131	62.812737	-1457.1658				302.85126	64.806221	-1408.1764	182.88483	68.135078	-1450.9233	131.52411	49.437065	-1434.7039				156.36185	18.04649	-1504.1577
297	1.48	256.13324	586.12347	-1091.6897	260.58374	601.8988	-1358.9076				429.57181	706.39172	-1251.5115	247.47754	578.76367	-1018.0367	296.74307	599.56995	-1030.1307	233.8445	527.00317	-956.22961	126.24414	420.85938	-896.02631				186.54292	247.51427	-891.85272	82.812157	295.51776	-919.15082	154.2019	206.92317	-914.2926	282.05991	68.264824	-946.49158				315.44327	70.189072	-1003.4147	203.65286	70.65995	-951.36633	146.75882	45.585518	-972.5224				170.45306	25.643776	-895.68536	206.14748	521.56982	-1462.0719	266.6149	605.21429	-1404.4453	196.65616	575.13324	-1401.6047	108.18902	424.61517	-1484.004				134.69463	251.76877	-1499.5035	62.286903	281.06174	-1457.5408	110.69789	211.78418	-1450.2632	272.48193	62.796101	-1457.1593				302.80093	64.838379	-1408.1656	182.86449	68.123917	-1450.9607	131.51085	49.438469	-1434.7307				156.36217	18.031584	-1504.1768
298	1.485	256.08633	584.15479	-1091.7322	260.66486	600.15442	-1359.0214				429.68103	704.297	-1251.5359	247.85725	577.53918	-1018.195	296.96326	598.02057	-1030.2717	234.12558	526.02307	-956.1947	126.12057	420.51886	-895.60199				186.41907	247.33925	-891.54883	82.576569	295.26547	-918.69281	154.10219	206.74463	-914.02551	282.03354	68.248184	-946.48419				315.39548	70.237587	-1003.4517	203.62567	70.652466	-951.35101	146.7406	45.603001	-972.49219				170.46875	25.650602	-895.66772	206.36534	520.6355	-1462.2457	266.93643	603.81299	-1404.5079	197.0916	574.12415	-1401.6603	107.95926	424.1933	-1484.3633				134.45673	251.53491	-1499.7366	61.957741	280.78488	-1457.8536	110.48815	211.57906	-1450.4794	272.46063	62.78006	-1457.1542				302.74814	64.871483	-1408.155	182.84297	68.113029	-1450.9994	131.4978	49.439171	-1434.7581				156.36282	18.013926	-1504.1964
299	1.49	256.01672	582.20453	-1091.781	260.7348	598.4209	-1359.1285				429.77917	702.20575	-1251.5544	248.22609	576.31299	-1018.3513	297.16965	596.46881	-1030.4133	234.39705	525.03894	-956.1618	125.99326	420.17679	-895.18011				186.2943	247.16428	-891.24689	82.342377	295.01483	-918.23578	153.99753	206.56235	-913.75848	282.0069	68.232674	-946.47626				315.34579	70.284431	-1003.4871	203.59496	70.644699	-951.33691	146.72224	45.620396	-972.46112				170.4836	25.653481	-895.65057	206.57191	519.70172	-1462.4156	267.2406	602.41113	-1404.5652	197.51367	573.11212	-1401.7113	107.72334	423.77191	-1484.7194				134.21849	251.30215	-1499.9642	61.626583	280.50867	-1458.1633	110.27734	211.37415	-1450.6937	272.43744	62.764854	-1457.1493				302.69308	64.905396	-1408.1437	182.82022	68.102501	-1451.0386	131.48492	49.43903	-1434.7854				156.36394	17.99382	-1504.2164
300	1.495	255.92651	580.27228	-1091.8358	260.79514	596.69635	-1359.2277				429.86743	700.11829	-1251.5662	248.58347	575.08679	-1018.5068	297.36249	594.91644	-1030.556	234.65723	524.05194	-956.1322	125.86017	419.8334	-894.7641				186.16666	246.98904	-890.94965	82.108391	294.76575	-917.78436	153.88757	206.37677	-913.49475	281.97964	68.218369	-946.46832				315.29428	70.32917	-1003.521	203.56084	70.636665	-951.32452	146.70358	45.63739	-972.42969				170.49757	25.652596	-895.6344	206.76654	518.76862	-1462.5808	267.52679	601.00812	-1404.6155	197.92174	572.0965	-1401.7555	107.48021	423.35098	-1485.0702				133.97911	251.07062	-1500.1855	61.292728	280.23264	-1458.4681	110.06498	211.16916	-1450.9043	272.41229	62.750675	-1457.1438				302.63593	64.939964	-1408.1299	182.79616	68.0924	-1451.0775	131.4722	49.437923	-1434.812				156.36554	17.971617	-1504.2361
301	1.5	255.81807	578.35767	-1091.8955	260.84735	594.97943	-1359.3168				429.9472	698.03528	-1251.5702	248.92871	573.862	-1018.6629	297.54199	593.36584	-1030.7	234.90457	523.06323	-956.10742	125.71932	419.48886	-894.35748				186.03426	246.81335	-890.65973	81.873276	294.51801	-917.34363	153.77209	206.18852	-913.23785	281.9516	68.20536	-946.46094				315.241	70.371353	-1003.5536	203.52373	70.628433	-951.31409	146.68452	45.653702	-972.3985				170.51056	25.6483	-895.61993	206.94859	517.83563	-1462.7393	267.79437	599.60315	-1404.6573	198.31519	571.0766	-1401.7905	107.22869	422.93033	-1485.4139				133.73769	250.84042	-1500.3993	60.955566	279.95618	-1458.7662	109.85053	210.96384	-1451.1099	272.38522	62.737701	-1457.1366				302.57687	64.974983	-1408.1133	182.77077	68.082718	-1451.115	131.45964	49.435791	-1434.8375				156.36772	17.947691	-1504.2552
302	1.505	255.69412	576.46027	-1091.9585	260.89255	593.26862	-1359.3944				430.01984	695.95715	-1251.5659	249.26118	572.64056	-1018.8211	297.70874	591.81915	-1030.8456	235.13774	522.07434	-956.08899	125.56886	419.14337	-893.96356				185.89539	246.63721	-890.37994	81.635628	294.27133	-916.91815	153.6507	205.99811	-912.99109	281.92239	68.193832	-946.45508				315.18604	70.410675	-1003.5852	203.48424	70.620186	-951.30573	146.6649	45.669083	-972.36835				170.52258	25.641134	-895.60748	207.11719	516.90186	-1462.8888	268.04303	598.19556	-1404.6896	198.69354	570.05151	-1401.8143	106.9675	422.5098	-1485.7482				133.49324	250.6116	-1500.605	60.614624	279.67877	-1459.0555	109.63349	210.75804	-1451.3092	272.35611	62.726028	-1457.1268				302.51624	65.010277	-1408.0924	182.74402	68.073486	-1451.1508	131.44724	49.432545	-1434.8617				156.37047	17.922459	-1504.2738
303	1.51	255.5576	574.57971	-1092.0242	260.93152	591.56348	-1359.4596				430.0864	693.88379	-1251.5542	249.58035	571.42377	-1018.9827	297.86337	590.27844	-1030.9929	235.35558	521.08655	-956.07812	125.40704	418.79727	-893.58575				185.74846	246.46078	-890.11292	81.393967	294.02542	-916.51263	153.52281	205.80615	-912.75745	281.89175	68.18399	-946.45135				315.12936	70.447037	-1003.6163	203.44324	70.612198	-951.29974	146.64456	45.683353	-972.3396				170.53363	25.631781	-895.59747	207.27135	515.96667	-1463.0275	268.2728	596.78461	-1404.7112	199.0563	569.02057	-1401.8254	106.69536	422.08929	-1486.0708				133.24503	250.38412	-1500.801	60.269554	279.40002	-1459.3337	109.41343	210.5517	-1451.5002	272.3252	62.715733	-1457.1139				302.45447	65.045624	-1408.0665	182.71593	68.06472	-1451.184	131.435	49.428185	-1434.8833				156.37383	17.896358	-1504.2909
304	1.515	255.41153	572.71613	-1092.0913	260.96509	589.86328	-1359.5115				430.14801	691.81464	-1251.5359	249.88603	570.2132	-1019.1488	298.00662	588.74548	-1031.1428	235.55707	520.10132	-956.07629	125.23226	418.45093	-893.22693				185.59218	246.28447	-889.86108	81.146858	293.78012	-916.13092	153.38777	205.61339	-912.53949	281.85947	68.176117	-946.45062				315.0712	70.480522	-1003.6476	203.40157	70.60482	-951.29602	146.6234	45.696419	-972.31311				170.5437	25.621048	-895.59033	207.4101	515.02899	-1463.1531	268.48395	595.36993	-1404.7217	199.40321	567.98334	-1401.822	106.41109	421.6687	-1486.379				132.99225	250.15804	-1500.9861	59.920105	279.11951	-1459.5985	109.19003	210.34467	-1451.6814	272.29242	62.706894	-1457.0968				302.39221	65.080833	-1408.0348	182.68654	68.056381	-1451.2139	131.42284	49.422703	-1434.9026				156.37788	17.869844	-1504.3066
305	1.52	255.25897	570.86951	-1092.1591	260.99387	588.16815	-1359.5497				430.20551	689.74963	-1251.5131	250.17842	569.00964	-1019.3211	298.13937	587.22156	-1031.296	235.7415	519.11975	-956.08466	125.04317	418.10452	-892.88995				185.42551	246.1088	-889.62665	80.89286	293.53506	-915.77667	153.24506	205.42065	-912.33954	281.82523	68.170486	-946.45361				315.01147	70.511528	-1003.6795	203.35979	70.598457	-951.29492	146.60126	45.708225	-972.28931				170.55283	25.609838	-895.58624	207.53247	514.08838	-1463.2635	268.67722	593.95135	-1404.7212	199.73413	566.93903	-1401.8024	106.11373	421.24783	-1486.6698				132.73424	249.93344	-1501.1582	59.56617	278.83707	-1459.847	108.96305	210.1369	-1451.8502	272.25803	62.699654	-1457.0754				302.3299	65.115738	-1407.9971	182.65598	68.048431	-1451.24	131.41063	49.416145	-1434.9187				156.38257	17.843409	-1504.3208
306	1.525	255.10297	569.04028	-1092.2264	261.01855	586.47791	-1359.5737				430.25967	687.68805	-1251.4873	250.45807	567.81384	-1019.5004	298.26239	585.70795	-1031.453	235.90839	518.14301	-956.10425	124.83852	417.75854	-892.5777				185.2476	245.93443	-889.41132	80.630531	293.28998	-915.45264	153.09419	205.22884	-912.15936	281.78885	68.167305	-946.46094				314.95047	70.540627	-1003.7129	203.31837	70.593468	-951.29681	146.57806	45.718811	-972.26874				170.56111	25.599142	-895.58527	207.63773	513.14441	-1463.3567	268.85364	592.52869	-1404.7097	200.04929	565.8877	-1401.7656	105.80251	420.82639	-1486.9398				132.47026	249.7106	-1501.3154	59.207787	278.5524	-1460.0762	108.73237	209.92834	-1452.0043	272.22211	62.694183	-1457.0493				302.26797	65.150169	-1407.9528	182.62437	68.040771	-1451.262	131.39839	49.408554	-1434.9318				156.38791	17.817577	-1504.3331
307	1.53	254.94629	567.229	-1092.2928	261.03973	584.79315	-1359.584				430.31113	685.62933	-1251.4612	250.7256	566.62622	-1019.6879	298.37637	584.20551	-1031.6138	236.0575	517.17188	-956.13617	124.61738	417.41333	-892.29218				185.05792	245.76207	-889.21686	80.358482	293.04459	-915.16144	152.9346	205.03856	-912.00055	281.75031	68.166695	-946.47308				314.88843	70.568626	-1003.7484	203.27771	70.590141	-951.30206	146.5537	45.72826	-972.25195				170.56863	25.589972	-895.58734	207.72533	512.19672	-1463.4313	269.0144	591.10223	-1404.6873	200.34903	564.82904	-1401.7102	105.47691	420.40396	-1487.1855				132.19971	249.48994	-1501.4557	58.845127	278.26553	-1460.2828	108.49786	209.71893	-1452.1416	272.18488	62.69072	-1457.0186				302.20682	65.184029	-1407.902	182.592	68.033287	-1451.2795	131.38606	49.399998	-1434.941				156.39375	17.792906	-1504.3435
